<svg xmlns="http://www.w3.org/2000/svg" viewBox="0 0 48 48"><rect width="48" height="48" rx="13" fill="#FF0033"/><svg x="10" y="10" width="28" height="28" viewBox="0 -960 960 960"><path fill="#FFFFFF" d="m479.04-394.98-91.13 91.13q7.29 14.76 10.17 31.17 2.88 16.4 2.88 32.68 0 66.96-47.48 114.43Q306-78.09 239.04-78.09q-66.95 0-114.31-47.48Q77.37-173.04 77.37-240q0-66.96 47.36-114.43 47.36-47.48 114.31-47.48 16.29 0 32.69 2.88t31.16 10.16L394.02-480l-91.13-91.13q-14.76 7.28-31.16 10.16t-32.69 2.88q-66.95 0-114.31-47.48Q77.37-653.04 77.37-720q0-66.96 47.36-114.43 47.36-47.48 114.31-47.48 66.96 0 114.44 47.48 47.48 47.47 47.48 114.43 0 16.28-2.88 32.68-2.88 16.41-10.17 31.17l437.52 437.52q28.68 28.67 12.96 65.45-15.72 36.77-56.11 36.77-11.71 0-22.93-4.74-11.22-4.74-19.7-13.22L479.04-394.98ZM604.3-520l-85.26-85.02 220.61-220.61q8.48-8.48 19.7-13.22 11.22-4.74 22.93-4.74 40.39 0 55.73 37.27 15.34 37.28-13.34 65.95L604.3-520ZM294.35-664.82q23.02-22.9 23.02-55.18t-23.02-55.18q-23.02-22.91-55.31-22.91-32.28 0-55.18 22.91-22.9 22.9-22.9 55.18t22.9 55.18q22.9 22.91 55.18 22.91 32.29 0 55.31-22.91Zm202.64 202.77q7.55-7.56 7.55-17.95t-7.55-17.95q-7.56-7.55-17.95-7.55t-17.94 7.55q-7.56 7.56-7.56 17.95t7.56 17.95q7.55 7.55 17.94 7.55t17.95-7.55ZM294.35-184.82q23.02-22.9 23.02-55.18t-23.02-55.18q-23.02-22.91-55.31-22.91-32.28 0-55.18 22.91-22.9 22.9-22.9 55.18t22.9 55.18q22.9 22.91 55.18 22.91 32.29 0 55.31-22.91Z"/></svg></svg>
